PathFileType	4	(X/Y/Z)	Patient4_TMGait_0pt8_01_left_52.trc.trc
DataRate	CameraRate	NumFrames	NumMarkers	Units	OrigDataRate	OrigDataStartFrame	OrigNumFrames
86.419753086420	86.419753086420	4	33	mm	86.419753086420	89	       141
Frame#	Time	Sacral			L.Shoulder			Chest			R.Shoulder			Neck			R.ASIS			L.ASIS			R.Thigh.Superior			R.Thigh.Lateral			R.Thigh.Inferior			R.Patella			L.Thigh.Superior			L.Thigh.Lateral			L.Thigh.Inferior			L.Patella			L.Shank.Superior			L.Shank.Lateral			L.Shank.Inferior			R.Shank.Superior			R.Shank.Lateral			R.Shank.Inferior			R.Heel			R.Midfoot.Superior			R.Midfoot.Lateral			R.Toe			L.Heel			L.Midfoot.Lateral			L.Midfoot.Superior			L.Toe			L.Elbow			L.Wrist			R.Elbow			R.Wrist			
		X1	Y1	Z1	X2	Y2	Z2	X3	Y3	Z3	X4	Y4	Z4	X5	Y5	Z5	X6	Y6	Z6	X7	Y7	Z7	X8	Y8	Z8	X9	Y9	Z9	X10	Y10	Z10	X11	Y11	Z11	X12	Y12	Z12	X13	Y13	Z13	X14	Y14	Z14	X15	Y15	Z15	X16	Y16	Z16	X17	Y17	Z17	X18	Y18	Z18	X19	Y19	Z19	X20	Y20	Z20	X21	Y21	Z21	X22	Y22	Z22	X23	Y23	Z23	X24	Y24	Z24	X25	Y25	Z25	X26	Y26	Z26	X27	Y27	Z27	X28	Y28	Z28	X29	Y29	Z29	X30	Y30	Z30	X31	Y31	Z31	X32	Y32	Z32	X33	Y33	Z33	

89	58.998285714286	886.108114870460	998.226431890816	501.948661846040	1073.053838671912	1433.011423394210	328.904532411975	1168.464727551263	1360.111457117715	493.139387490466	1075.640071282212	1428.968939384308	664.743150921071	1055.840067340899	1488.894531530370	485.423082656778	1115.349336603877	938.999897114782	621.033142386330	876.140207600983	760.825190589676	275.751948571835	1179.076165535150	749.340303346555	591.064714814837	1110.058541635264	632.307629820883	648.252960569867	1194.433930925080	590.111779299379	568.781701817891	1206.027893606768	501.105737136434	574.217062867769	1138.427836239483	735.596831253385	362.658214101075	1050.005409772823	622.610159208113	295.241539047772	1139.432477640560	535.622997264598	347.442818151188	1128.137503912388	448.466747490773	341.561329291336	1051.632533763835	395.588706538846	338.358278810719	903.762705854317	372.538377283081	297.464637156801	876.469172373051	245.687962791309	351.931046160262	1184.348130714255	410.299698589298	580.348885872580	1121.053518656091	300.609318227363	640.654007757356	1170.748907526694	209.931729164380	576.598526637583	1046.835502887680	42.146123771471	547.323980678632	1218.756573722148	99.314979661095	577.424092050719	1132.901849373603	37.374897952274	618.932384812222	1339.586184269332	49.815282771885	599.920947169943	681.882034788035	212.741693393797	398.998824582027	726.512125235334	153.371849283444	319.810762589738	832.390627598348	143.309246885385	336.819406417353	888.338518286774	29.072097997467	313.572530279558	1098.507684323608	1091.624909379936	190.303118192484	1348.216926817986	1040.462576814093	221.477898149232	939.794264610180	1105.042190018764	759.999691852312	919.105288030301	845.151080678099	766.205855408320	
90	59.009857142857	885.403642465261	999.550020928837	505.539450361879	1070.445417314317	1434.109926133531	330.690005567507	1167.969006001777	1361.199955924241	493.756250886848	1077.254538680571	1429.860975409747	666.640608210790	1055.200185039319	1489.930816496659	487.479821776492	1115.469235373957	940.038503425839	622.339869512274	799.539133922632	696.079985815776	253.390781534102	1176.397291877626	748.396965764515	592.945180622766	1105.927323837417	632.447759389092	649.986668692255	1189.358918274350	589.285596137035	570.025452251152	1199.708103349130	500.308832331034	575.249035924114	1142.265492275841	739.439255825333	364.373458126969	1058.044383902408	624.490630058393	296.083714445313	1150.046164993902	539.648885959272	348.342558088701	1140.591868508387	451.555345562786	342.131632029714	1063.134587917049	398.393844306980	338.785928808866	914.721288068787	378.668047838063	297.679441134108	884.696903320296	252.333389804656	352.078757707312	1177.365918078962	409.765601853318	581.397058326419	1113.424474372162	300.374703946646	641.510997273870	1162.356514864207	209.584730891121	577.095042554192	1037.539360706480	42.147242509956	547.434860397546	1209.595789288582	99.429020332065	577.744006189334	1123.597575620925	37.319573078643	619.019796789023	1330.347672346068	49.543877226294	599.977487087181	689.754215526871	226.022027405513	399.078697462392	732.059864899356	165.000569423986	319.658618507352	837.814399656577	150.238296445098	336.742606813038	888.364601696907	30.196502289852	312.748643747252	1091.286442235281	1090.702658952927	195.160377435406	1338.237088739633	1023.943284992794	223.767365594726	948.484185606618	1102.497644926128	763.542303235352	940.435318544866	841.623796884125	769.361225829738	
91	59.021428571429	884.542165561412	1000.819665423711	508.966346874645	1067.643056049505	1435.080705279405	332.380962976426	1167.327247242325	1362.177065610269	494.223624104073	1078.830174692191	1430.633182853193	668.432803334910	1054.465241680227	1490.898242648143	489.426150555974	1115.439978332586	940.994399331080	623.521520421363	735.940168479344	642.716142309087	234.960310146430	1173.589458439645	747.584441049356	594.671505548736	1101.725358896098	632.623898463713	651.711032677551	1184.238702813418	588.506487369931	571.317579227718	1193.303628056933	499.567056106885	576.396650522691	1145.743648782345	743.552404208594	366.001853980276	1065.661651117180	626.850802967027	296.776727275631	1160.141001614236	544.240972848433	349.060543673437	1152.703423776453	455.296946774647	342.502021336530	1074.601647825504	401.657539857713	339.055478772002	925.801847603657	384.414007862211	297.864865226648	893.805221589211	258.487350304870	352.246204977092	1170.330735178510	409.275693591815	582.490924852449	1105.753228167396	300.188596676909	642.453626887874	1153.943914540531	209.289510471399	577.653731536706	1028.209612169207	42.185370224645	547.572689152351	1200.432737298500	99.464552470651	578.058357213166	1114.271256951812	37.258424317446	619.113791042432	1321.111442698649	49.187472965223	600.009020042935	698.814676310125	236.903809190289	399.388648103081	739.318780994040	174.952918914668	319.617636358511	844.887663805731	156.798786701528	336.646383960164	891.330088108805	32.180275330250	311.702280197157	1084.061581667805	1089.728521998172	199.959389872148	1326.998789512841	1006.667337289234	225.765815195714	957.818887419065	1099.786047076232	766.939881047280	962.879379988571	838.558663484013	772.353355824612	
92	59.033000000000	883.547686295453	1002.036806857211	512.208770365835	1064.726732078786	1435.951474492528	333.985241575204	1166.552013177573	1363.061040659311	494.579766221957	1080.321802747795	1431.316360050927	670.103988565652	1053.654624087226	1491.817715060111	491.255427749889	1115.269805868714	941.910320316931	624.618490373054	697.353421348236	611.321427714765	224.374167195717	1170.696630375051	746.922283939972	596.261946212148	1097.451543047411	632.844160894897	653.407068817349	1179.097214850665	587.781054519870	572.659007710140	1186.847915996305	498.887002078619	577.635739432219	1148.836225497948	747.911715231043	367.540444096931	1072.799491848270	629.666897341430	297.301660894521	1169.677011331892	549.361236913740	349.520077239050	1164.410805716186	459.669445673496	342.556038851413	1085.988814557779	405.338517685030	339.081977679063	936.914543539546	389.640927838271	298.005683634755	903.815202278112	263.951637724682	352.379695362964	1163.267128720009	408.840631017582	583.627909640402	1098.024696951722	300.071731993876	643.454128352722	1145.518531192263	209.054132782957	578.275317285044	1018.857028154417	42.254989715779	547.738828649535	1191.268368235277	99.435562780744	578.364961557842	1104.933684381853	37.200956736904	619.221388794511	1311.875375568449	48.788727163407	600.031908543586	708.996385124501	245.060708888003	399.920041842758	748.276285772019	182.852550725455	319.689724212029	853.691004413863	162.683666788105	336.493310230135	897.485926966181	34.861589687726	310.455377195001	1076.818976800157	1088.742468962619	204.686678878237	1314.341456898091	988.864008680304	227.481052933399	967.856105020321	1096.955953342193	770.158310636741	986.372512636471	836.083947519725	775.116803699108	
